<mxfile host="app.diagrams.net" modified="2024-01-19T05:23:53.386Z" agent="Mozilla/5.0 (Windows NT 10.0; Win64; x64) AppleWebKit/537.36 (KHTML, like Gecko) Chrome/120.0.0.0 Safari/537.36" version="22.1.21" etag="sNtkFxbUj0g-erHvxOzq" type="github">
  <diagram name="Page-1" id="6NF4M368uA98JPVXQJ6x">
    <mxGraphModel>
      <root>
        <mxCell id="0" />
        <mxCell id="1" parent="0" />
      </root>
    </mxGraphModel>
  </diagram>
</mxfile>
